<svg viewBox="0 0 1400 700" xmlns="http://www.w3.org/2000/svg">
  <!-- Background -->
  <rect width="1400" height="700" fill="#ffffff"/>
  
  <!-- Form Box -->
  <g>
    <rect x="87" y="318" width="217" height="217" rx="15" fill="none" stroke="#3a3a3a" stroke-width="6"/>
    <rect x="133" y="350" width="105" height="130" rx="5" fill="none" stroke="#3a3a3a" stroke-width="5"/>
    <path d="M 218 365 L 238 350 L 238 380 Z" fill="#9a9a9a" stroke="#3a3a3a" stroke-width="3"/>
    <line x1="153" y1="380" x2="203" y2="380" stroke="#3a3a3a" stroke-width="4"/>
    <line x1="153" y1="400" x2="203" y2="400" stroke="#3a3a3a" stroke-width="4"/>
    <line x1="153" y1="420" x2="203" y2="420" stroke="#3a3a3a" stroke-width="4"/>
    <line x1="153" y1="440" x2="203" y2="440" stroke="#3a3a3a" stroke-width="4"/>
    <text x="195.5" y="595" font-family="Arial, sans-serif" font-size="42" font-weight="bold" text-anchor="middle" fill="#3a3a3a">FORM</text>
  </g>
  
  <!-- Arrow 1 -->
  <path d="M 304 427 L 360 427" fill="none" stroke="#3a3a3a" stroke-width="6"/>
  <path d="M 360 427 L 345 415 L 345 439 Z" fill="#3a3a3a"/>
  
  <!-- Spreadsheet Box -->
  <g>
    <rect x="370" y="318" width="257" height="217" rx="15" fill="none" stroke="#3a3a3a" stroke-width="6"/>
    <rect x="410" y="358" width="177" height="110" rx="3" fill="none" stroke="#3a3a3a" stroke-width="5"/>
    <rect x="410" y="358" width="177" height="30" fill="#9a9a9a" stroke="#3a3a3a" stroke-width="5"/>
    <line x1="469" y1="358" x2="469" y2="468" stroke="#3a3a3a" stroke-width="4"/>
    <line x1="528" y1="358" x2="528" y2="468" stroke="#3a3a3a" stroke-width="4"/>
    <line x1="410" y1="400" x2="587" y2="400" stroke="#3a3a3a" stroke-width="4"/>
    <line x1="410" y1="433" x2="587" y2="433" stroke="#3a3a3a" stroke-width="4"/>
    <text x="498.5" y="595" font-family="Arial, sans-serif" font-size="42" font-weight="bold" text-anchor="middle" fill="#3a3a3a">SPREADSHEET</text>
  </g>
  
  <!-- Arrow 2 -->
  <path d="M 627 427 L 683 427" fill="none" stroke="#3a3a3a" stroke-width="6"/>
  <path d="M 683 427 L 668 415 L 668 439 Z" fill="#3a3a3a"/>
  
  <!-- Calendar Box -->
  <g>
    <rect x="697" y="318" width="247" height="217" rx="15" fill="none" stroke="#3a3a3a" stroke-width="6"/>
    <rect x="747" y="350" width="153" height="130" rx="5" fill="#9a9a9a" stroke="#3a3a3a" stroke-width="5"/>
    <rect x="747" y="350" width="153" height="25" fill="#3a3a3a"/>
    <circle cx="775" cy="355" r="8" fill="#3a3a3a"/>
    <circle cx="872" cy="355" r="8" fill="#3a3a3a"/>
    <rect x="770" y="400" width="18" height="18" rx="2" fill="#3a3a3a"/>
    <rect x="803" y="400" width="18" height="18" rx="2" fill="#3a3a3a"/>
    <rect x="836" y="400" width="18" height="18" rx="2" fill="#3a3a3a"/>
    <rect x="770" y="430" width="18" height="18" rx="2" fill="#3a3a3a"/>
    <rect x="803" y="430" width="18" height="18" rx="2" fill="#3a3a3a"/>
    <rect x="836" y="430" width="18" height="18" rx="2" fill="#3a3a3a"/>
    <text x="820.5" y="595" font-family="Arial, sans-serif" font-size="42" font-weight="bold" text-anchor="middle" fill="#3a3a3a">CALENDAR</text>
  </g>
  
  <!-- Arrow 3 -->
  <path d="M 944 427 L 1000 427" fill="none" stroke="#3a3a3a" stroke-width="6"/>
  <path d="M 1000 427 L 985 415 L 985 439 Z" fill="#3a3a3a"/>
  
  <!-- Email Box -->
  <g>
    <rect x="1010" y="318" width="247" height="217" rx="15" fill="none" stroke="#3a3a3a" stroke-width="6"/>
    <rect x="1047" y="360" width="130" height="90" rx="5" fill="none" stroke="#3a3a3a" stroke-width="5"/>
    <path d="M 1047 360 L 1112 410 L 1177 360" fill="none" stroke="#3a3a3a" stroke-width="5"/>
    <circle cx="1192" cy="445" r="35" fill="none" stroke="#3a3a3a" stroke-width="5"/>
    <text x="1192" y="463" font-family="Arial, sans-serif" font-size="48" font-weight="bold" text-anchor="middle" fill="#3a3a3a">@</text>
    <text x="1133.5" y="595" font-family="Arial, sans-serif" font-size="42" font-weight="bold" text-anchor="middle" fill="#3a3a3a">EMAIL</text>
  </g>
</svg>